<svg width="224" height="27" viewBox="0 0 224 27" fill="none" xmlns="http://www.w3.org/2000/svg">
<path d="M0.48 13.232C0.736 11.808 1.2 10.576 1.872 9.536C2.544 8.48 3.352 7.68 4.296 7.136C5.24 6.576 6.24 6.296 7.296 6.296C8.176 6.296 8.896 6.48 9.456 6.848C10.032 7.2 10.432 7.688 10.656 8.312L11.736 2.24H17.064L13.92 20H8.592L8.928 18.152C8.48 18.776 7.904 19.272 7.2 19.64C6.512 19.992 5.728 20.168 4.848 20.168C3.488 20.168 2.392 19.712 1.56 18.8C0.728 17.888 0.312 16.624 0.312 15.008C0.312 14.4 0.368 13.808 0.48 13.232ZM9.816 13.232C9.848 13.088 9.864 12.896 9.864 12.656C9.864 12.112 9.72 11.696 9.432 11.408C9.144 11.104 8.752 10.952 8.256 10.952C7.68 10.952 7.168 11.152 6.72 11.552C6.288 11.952 6.008 12.512 5.88 13.232C5.848 13.376 5.832 13.568 5.832 13.808C5.832 14.352 5.976 14.776 6.264 15.08C6.552 15.368 6.944 15.512 7.44 15.512C8.016 15.512 8.52 15.312 8.952 14.912C9.4 14.512 9.688 13.952 9.816 13.232ZM21.5445 5.384C20.7125 5.384 20.0565 5.184 19.5765 4.784C19.1125 4.384 18.8805 3.864 18.8805 3.224C18.8805 2.664 19.0325 2.144 19.3365 1.664C19.6405 1.184 20.0645 0.807999 20.6085 0.535999C21.1685 0.247999 21.7845 0.103999 22.4565 0.103999C23.2725 0.103999 23.9125 0.311999 24.3765 0.727999C24.8565 1.128 25.0965 1.656 25.0965 2.312C25.0965 2.872 24.9445 3.384 24.6405 3.848C24.3365 4.312 23.9125 4.688 23.3685 4.976C22.8245 5.248 22.2165 5.384 21.5445 5.384ZM21.4725 20.936C20.8325 24.632 18.6565 26.48 14.9445 26.48H13.1685L13.9605 21.944H14.9925C15.3445 21.944 15.6085 21.872 15.7845 21.728C15.9605 21.584 16.0805 21.352 16.1445 21.032L18.7125 6.464H24.0405L21.4725 20.936ZM24.48 13.232C24.736 11.808 25.2 10.576 25.872 9.536C26.544 8.48 27.352 7.68 28.296 7.136C29.24 6.576 30.24 6.296 31.296 6.296C32.176 6.296 32.904 6.48 33.48 6.848C34.056 7.2 34.456 7.688 34.68 8.312L35.016 6.464H40.32L37.92 20H32.616L32.952 18.152C32.504 18.776 31.928 19.272 31.224 19.64C30.52 19.992 29.728 20.168 28.848 20.168C27.488 20.168 26.392 19.712 25.56 18.8C24.728 17.888 24.312 16.624 24.312 15.008C24.312 14.4 24.368 13.808 24.48 13.232ZM33.816 13.232C33.848 13.088 33.864 12.896 33.864 12.656C33.864 12.112 33.72 11.696 33.432 11.408C33.144 11.104 32.752 10.952 32.256 10.952C31.68 10.952 31.168 11.152 30.72 11.552C30.288 11.952 30.008 12.512 29.88 13.232C29.848 13.376 29.832 13.568 29.832 13.808C29.832 14.352 29.976 14.776 30.264 15.08C30.552 15.368 30.944 15.512 31.44 15.512C32.016 15.512 32.52 15.312 32.952 14.912C33.4 14.512 33.688 13.952 33.816 13.232ZM52.1925 6.368C53.5045 6.368 54.5125 6.752 55.2165 7.52C55.9205 8.272 56.2725 9.312 56.2725 10.64C56.2725 11.12 56.2245 11.624 56.1285 12.152L54.7365 20H49.4325L50.7045 12.824C50.7365 12.568 50.7525 12.392 50.7525 12.296C50.7525 11.8 50.6085 11.416 50.3205 11.144C50.0485 10.872 49.6645 10.736 49.1685 10.736C48.5925 10.736 48.1045 10.92 47.7045 11.288C47.3045 11.656 47.0405 12.16 46.9125 12.8L45.6405 20H40.3125L42.7125 6.464H48.0405L47.6805 8.504C48.2085 7.864 48.8565 7.352 49.6245 6.968C50.3925 6.568 51.2485 6.368 52.1925 6.368ZM64.3429 6.296C65.2229 6.296 65.9509 6.48 66.5269 6.848C67.1029 7.2 67.5029 7.688 67.7269 8.312L68.0629 6.464H73.3669L71.0149 19.76C70.7909 21.024 70.3509 22.176 69.6949 23.216C69.0549 24.256 68.1589 25.088 67.0069 25.712C65.8709 26.336 64.4949 26.648 62.8789 26.648C60.8149 26.648 59.2389 26.184 58.1509 25.256C57.0629 24.344 56.5189 23.088 56.5189 21.488C56.5189 21.264 56.5269 21.096 56.5429 20.984H61.7749C61.8069 21.688 62.3189 22.04 63.3109 22.04C63.9349 22.04 64.4469 21.88 64.8469 21.56C65.2629 21.24 65.5509 20.64 65.7109 19.76L65.9989 18.152C65.5509 18.776 64.9749 19.272 64.2709 19.64C63.5669 19.992 62.7749 20.168 61.8949 20.168C60.5349 20.168 59.4389 19.712 58.6069 18.8C57.7749 17.888 57.3589 16.624 57.3589 15.008C57.3589 14.4 57.4149 13.808 57.5269 13.232C57.7829 11.808 58.2469 10.576 58.9189 9.536C59.5909 8.48 60.3989 7.68 61.3429 7.136C62.2869 6.576 63.2869 6.296 64.3429 6.296ZM66.8629 13.232C66.8949 13.088 66.9109 12.896 66.9109 12.656C66.9109 12.112 66.7669 11.696 66.4789 11.408C66.1909 11.104 65.7989 10.952 65.3029 10.952C64.7269 10.952 64.2149 11.152 63.7669 11.552C63.3349 11.952 63.0549 12.512 62.9269 13.232C62.8949 13.376 62.8789 13.568 62.8789 13.808C62.8789 14.352 63.0229 14.776 63.3109 15.08C63.5989 15.368 63.9909 15.512 64.4869 15.512C65.0629 15.512 65.5669 15.312 65.9989 14.912C66.4469 14.512 66.7349 13.952 66.8629 13.232ZM79.7674 20.168C78.5674 20.168 77.5114 19.936 76.5994 19.472C75.6874 19.008 74.9754 18.352 74.4634 17.504C73.9514 16.64 73.6954 15.64 73.6954 14.504C73.6954 12.936 74.0634 11.528 74.7994 10.28C75.5514 9.032 76.5754 8.056 77.8714 7.352C79.1674 6.648 80.6154 6.296 82.2154 6.296C83.4154 6.296 84.4714 6.536 85.3834 7.016C86.2954 7.48 87.0074 8.144 87.5194 9.008C88.0314 9.856 88.2874 10.848 88.2874 11.984C88.2874 13.552 87.9194 14.96 87.1834 16.208C86.4474 17.456 85.4314 18.432 84.1354 19.136C82.8394 19.824 81.3834 20.168 79.7674 20.168ZM80.5834 15.56C81.2714 15.56 81.8154 15.248 82.2154 14.624C82.6154 14 82.8154 13.304 82.8154 12.536C82.8154 11.992 82.6794 11.584 82.4074 11.312C82.1514 11.04 81.8154 10.904 81.3994 10.904C80.7114 10.904 80.1674 11.216 79.7674 11.84C79.3674 12.464 79.1674 13.16 79.1674 13.928C79.1674 14.472 79.2954 14.88 79.5514 15.152C79.8074 15.424 80.1514 15.56 80.5834 15.56ZM93.1753 13.232C93.4313 11.808 93.8953 10.576 94.5673 9.536C95.2393 8.48 96.0473 7.68 96.9913 7.136C97.9353 6.576 98.9353 6.296 99.9913 6.296C100.871 6.296 101.599 6.48 102.175 6.848C102.751 7.2 103.151 7.688 103.375 8.312L103.711 6.464H109.015L106.615 20H101.311L101.647 18.152C101.199 18.776 100.623 19.272 99.9193 19.64C99.2153 19.992 98.4233 20.168 97.5433 20.168C96.1833 20.168 95.0873 19.712 94.2553 18.8C93.4233 17.888 93.0073 16.624 93.0073 15.008C93.0073 14.4 93.0633 13.808 93.1753 13.232ZM102.511 13.232C102.543 13.088 102.559 12.896 102.559 12.656C102.559 12.112 102.415 11.696 102.127 11.408C101.839 11.104 101.447 10.952 100.951 10.952C100.375 10.952 99.8633 11.152 99.4153 11.552C98.9833 11.952 98.7033 12.512 98.5753 13.232C98.5433 13.376 98.5273 13.568 98.5273 13.808C98.5273 14.352 98.6713 14.776 98.9593 15.08C99.2473 15.368 99.6393 15.512 100.135 15.512C100.711 15.512 101.215 15.312 101.647 14.912C102.095 14.512 102.383 13.952 102.511 13.232ZM109.488 13.232C109.744 11.808 110.208 10.576 110.88 9.536C111.552 8.48 112.36 7.68 113.304 7.136C114.248 6.576 115.248 6.296 116.304 6.296C117.184 6.296 117.904 6.48 118.464 6.848C119.04 7.2 119.44 7.688 119.664 8.312L120.744 2.24H126.072L122.928 20H117.6L117.936 18.152C117.488 18.776 116.912 19.272 116.208 19.64C115.52 19.992 114.736 20.168 113.856 20.168C112.496 20.168 111.4 19.712 110.568 18.8C109.736 17.888 109.32 16.624 109.32 15.008C109.32 14.4 109.376 13.808 109.488 13.232ZM118.824 13.232C118.856 13.088 118.872 12.896 118.872 12.656C118.872 12.112 118.728 11.696 118.44 11.408C118.152 11.104 117.76 10.952 117.264 10.952C116.688 10.952 116.176 11.152 115.728 11.552C115.296 11.952 115.016 12.512 114.888 13.232C114.856 13.376 114.84 13.568 114.84 13.808C114.84 14.352 114.984 14.776 115.272 15.08C115.56 15.368 115.952 15.512 116.448 15.512C117.024 15.512 117.528 15.312 117.96 14.912C118.408 14.512 118.696 13.952 118.824 13.232ZM125.8 13.232C126.056 11.808 126.52 10.576 127.192 9.536C127.864 8.48 128.672 7.68 129.616 7.136C130.56 6.576 131.56 6.296 132.616 6.296C133.496 6.296 134.216 6.48 134.776 6.848C135.352 7.2 135.752 7.688 135.976 8.312L137.056 2.24H142.384L139.24 20H133.912L134.248 18.152C133.8 18.776 133.224 19.272 132.52 19.64C131.832 19.992 131.048 20.168 130.168 20.168C128.808 20.168 127.712 19.712 126.88 18.8C126.048 17.888 125.632 16.624 125.632 15.008C125.632 14.4 125.688 13.808 125.8 13.232ZM135.136 13.232C135.168 13.088 135.184 12.896 135.184 12.656C135.184 12.112 135.04 11.696 134.752 11.408C134.464 11.104 134.072 10.952 133.576 10.952C133 10.952 132.488 11.152 132.04 11.552C131.608 11.952 131.328 12.512 131.2 13.232C131.168 13.376 131.152 13.568 131.152 13.808C131.152 14.352 131.296 14.776 131.584 15.08C131.872 15.368 132.264 15.512 132.76 15.512C133.336 15.512 133.84 15.312 134.272 14.912C134.72 14.512 135.008 13.952 135.136 13.232ZM148.929 8.96C149.617 8.176 150.385 7.552 151.233 7.088C152.097 6.608 152.953 6.368 153.801 6.368L152.817 12.056H151.305C150.297 12.056 149.521 12.232 148.977 12.584C148.449 12.936 148.105 13.56 147.945 14.456L146.961 20H141.633L144.033 6.464H149.361L148.929 8.96ZM161.452 6.296C163.244 6.296 164.668 6.776 165.724 7.736C166.78 8.68 167.308 9.976 167.308 11.624C167.308 12.088 167.26 12.584 167.164 13.112C167.052 13.64 166.964 13.992 166.9 14.168H158.356C158.34 14.264 158.332 14.4 158.332 14.576C158.332 15.472 158.716 15.92 159.484 15.92C160.076 15.92 160.54 15.656 160.876 15.128H166.516C166.164 16.088 165.612 16.952 164.86 17.72C164.108 18.472 163.22 19.072 162.196 19.52C161.188 19.952 160.124 20.168 159.004 20.168C157.212 20.168 155.788 19.696 154.732 18.752C153.692 17.792 153.172 16.464 153.172 14.768C153.172 14.272 153.22 13.76 153.316 13.232C153.572 11.824 154.084 10.6 154.852 9.56C155.62 8.504 156.572 7.696 157.708 7.136C158.86 6.576 160.108 6.296 161.452 6.296ZM161.956 11.984C161.972 11.904 161.98 11.784 161.98 11.624C161.98 11.24 161.86 10.952 161.62 10.76C161.38 10.568 161.076 10.472 160.708 10.472C159.748 10.472 159.1 10.976 158.764 11.984H161.956ZM173.817 20.168C172.633 20.168 171.577 19.992 170.649 19.64C169.737 19.288 169.017 18.8 168.489 18.176C167.977 17.536 167.721 16.808 167.721 15.992C167.721 15.688 167.737 15.464 167.769 15.32H172.881C172.865 15.72 172.977 16.016 173.217 16.208C173.473 16.4 173.817 16.496 174.249 16.496C174.521 16.496 174.753 16.432 174.945 16.304C175.153 16.176 175.257 16.024 175.257 15.848C175.257 15.592 175.097 15.392 174.777 15.248C174.457 15.088 173.929 14.912 173.193 14.72C172.265 14.464 171.489 14.2 170.865 13.928C170.257 13.656 169.721 13.256 169.257 12.728C168.809 12.184 168.585 11.48 168.585 10.616C168.585 9.816 168.825 9.088 169.305 8.432C169.801 7.76 170.489 7.24 171.369 6.872C172.265 6.488 173.297 6.296 174.465 6.296C175.745 6.296 176.841 6.512 177.753 6.944C178.681 7.376 179.377 7.96 179.841 8.696C180.305 9.432 180.521 10.248 180.489 11.144H175.761C175.761 10.776 175.649 10.496 175.425 10.304C175.201 10.096 174.873 9.992 174.441 9.992C174.169 9.992 173.937 10.048 173.745 10.16C173.569 10.272 173.481 10.424 173.481 10.616C173.481 10.856 173.641 11.056 173.961 11.216C174.281 11.36 174.825 11.552 175.593 11.792C176.537 12.064 177.313 12.336 177.921 12.608C178.545 12.864 179.089 13.256 179.553 13.784C180.017 14.296 180.249 14.952 180.249 15.752C180.249 17.144 179.649 18.232 178.449 19.016C177.265 19.784 175.721 20.168 173.817 20.168ZM187.715 20.168C186.531 20.168 185.475 19.992 184.547 19.64C183.635 19.288 182.915 18.8 182.387 18.176C181.875 17.536 181.619 16.808 181.619 15.992C181.619 15.688 181.635 15.464 181.667 15.32H186.779C186.763 15.72 186.875 16.016 187.115 16.208C187.371 16.4 187.715 16.496 188.147 16.496C188.419 16.496 188.651 16.432 188.843 16.304C189.051 16.176 189.155 16.024 189.155 15.848C189.155 15.592 188.995 15.392 188.675 15.248C188.355 15.088 187.827 14.912 187.091 14.72C186.163 14.464 185.387 14.2 184.763 13.928C184.155 13.656 183.619 13.256 183.155 12.728C182.707 12.184 182.483 11.48 182.483 10.616C182.483 9.816 182.723 9.088 183.203 8.432C183.699 7.76 184.387 7.24 185.267 6.872C186.163 6.488 187.195 6.296 188.363 6.296C189.643 6.296 190.739 6.512 191.651 6.944C192.579 7.376 193.275 7.96 193.739 8.696C194.203 9.432 194.419 10.248 194.387 11.144H189.659C189.659 10.776 189.547 10.496 189.323 10.304C189.099 10.096 188.771 9.992 188.339 9.992C188.067 9.992 187.835 10.048 187.643 10.16C187.467 10.272 187.379 10.424 187.379 10.616C187.379 10.856 187.539 11.056 187.859 11.216C188.179 11.36 188.723 11.552 189.491 11.792C190.435 12.064 191.211 12.336 191.819 12.608C192.443 12.864 192.987 13.256 193.451 13.784C193.915 14.296 194.147 14.952 194.147 15.752C194.147 17.144 193.547 18.232 192.347 19.016C191.163 19.784 189.619 20.168 187.715 20.168ZM204.038 6.296C205.83 6.296 207.254 6.776 208.31 7.736C209.366 8.68 209.894 9.976 209.894 11.624C209.894 12.088 209.846 12.584 209.75 13.112C209.638 13.64 209.55 13.992 209.486 14.168H200.942C200.926 14.264 200.918 14.4 200.918 14.576C200.918 15.472 201.302 15.92 202.07 15.92C202.662 15.92 203.126 15.656 203.462 15.128H209.102C208.75 16.088 208.198 16.952 207.446 17.72C206.694 18.472 205.806 19.072 204.782 19.52C203.774 19.952 202.71 20.168 201.59 20.168C199.798 20.168 198.374 19.696 197.318 18.752C196.278 17.792 195.758 16.464 195.758 14.768C195.758 14.272 195.806 13.76 195.902 13.232C196.158 11.824 196.67 10.6 197.438 9.56C198.206 8.504 199.158 7.696 200.294 7.136C201.446 6.576 202.694 6.296 204.038 6.296ZM204.542 11.984C204.558 11.904 204.566 11.784 204.566 11.624C204.566 11.24 204.446 10.952 204.206 10.76C203.966 10.568 203.662 10.472 203.294 10.472C202.334 10.472 201.686 10.976 201.35 11.984H204.542ZM216.403 20.168C215.219 20.168 214.163 19.992 213.235 19.64C212.323 19.288 211.603 18.8 211.075 18.176C210.563 17.536 210.307 16.808 210.307 15.992C210.307 15.688 210.323 15.464 210.355 15.32H215.467C215.451 15.72 215.563 16.016 215.803 16.208C216.059 16.4 216.403 16.496 216.835 16.496C217.107 16.496 217.339 16.432 217.531 16.304C217.739 16.176 217.843 16.024 217.843 15.848C217.843 15.592 217.683 15.392 217.363 15.248C217.043 15.088 216.515 14.912 215.779 14.72C214.851 14.464 214.075 14.2 213.451 13.928C212.843 13.656 212.307 13.256 211.843 12.728C211.395 12.184 211.171 11.48 211.171 10.616C211.171 9.816 211.411 9.088 211.891 8.432C212.387 7.76 213.075 7.24 213.955 6.872C214.851 6.488 215.883 6.296 217.051 6.296C218.331 6.296 219.427 6.512 220.339 6.944C221.267 7.376 221.963 7.96 222.427 8.696C222.891 9.432 223.107 10.248 223.075 11.144H218.347C218.347 10.776 218.235 10.496 218.011 10.304C217.787 10.096 217.459 9.992 217.027 9.992C216.755 9.992 216.523 10.048 216.331 10.16C216.155 10.272 216.067 10.424 216.067 10.616C216.067 10.856 216.227 11.056 216.547 11.216C216.867 11.36 217.411 11.552 218.179 11.792C219.123 12.064 219.899 12.336 220.507 12.608C221.131 12.864 221.675 13.256 222.139 13.784C222.603 14.296 222.835 14.952 222.835 15.752C222.835 17.144 222.235 18.232 221.035 19.016C219.851 19.784 218.307 20.168 216.403 20.168Z" fill="#0D740B"/>
</svg>
